<svg width="256" height="256" viewBox="0 0 256 256" fill="none" xmlns="http://www.w3.org/2000/svg">
  <path fill-rule="evenodd" clip-rule="evenodd" d="M112.95 189.406C111.471 191.95 111.471 195.092 112.95 197.636L120.927 211.347C124.083 216.771 131.917 216.771 135.073 211.347L215.504 73.0979C218.678 67.6428 214.742 60.8 208.431 60.8H192.477C189.563 60.8 186.869 62.3494 185.404 64.8681L112.95 189.406Z" fill="#6C63FF"/>
  <path fill-rule="evenodd" clip-rule="evenodd" d="M158.46 74.0855C161.634 68.6304 157.698 61.788 151.387 61.788H47.569C41.2581 61.788 37.3226 68.6304 40.4963 74.0855L91.5882 161.906C94.7439 167.33 102.578 167.33 105.734 161.906L113.981 147.73C115.461 145.187 115.461 142.045 113.981 139.501L93.6376 104.533C90.4639 99.0781 94.3994 92.2357 100.71 92.2357H143.194C146.108 92.2357 148.802 90.6862 150.267 88.1676L158.46 74.0855Z" fill="#0F172A"/>
</svg>
